<svg width="128" height="128" viewBox="0 0 128 128" fill="none" xmlns="http://www.w3.org/2000/svg">
<path fill-rule="evenodd" clip-rule="evenodd" d="M56 32V96H21C18.2386 96 16 98.2386 16 101V112H5C2.23858 112 0 114.239 0 117V128H128V117C128 114.239 125.761 112 123 112H112V101C112 98.2386 109.761 96 107 96H72V32H56Z" fill="black"/>
<path fill-rule="evenodd" clip-rule="evenodd" d="M4.18604 43.9376L33.4884 57.7917L33.4884 57.7917L72 76L72 2.73704e-05L33.4884 18.2083L33.4884 18.2084L4.18605 32.0626C-1.39535 34.7015 -1.39536 41.2987 4.18604 43.9376Z" fill="#FF0000"/>
</svg>
