<svg width="128" height="128" viewBox="0 0 128 128" fill="none" xmlns="http://www.w3.org/2000/svg">
<path fill-rule="evenodd" clip-rule="evenodd" d="M64 128C61.2386 128 59 125.761 59 123V103.691C51.5927 102.767 44.8144 99.8178 39.2367 95.4151L25.6066 109.045C23.654 110.998 20.4882 110.998 18.5355 109.045C16.5829 107.093 16.5829 103.927 18.5355 101.974L32.2181 88.2915C28.0185 82.8052 25.2073 76.1997 24.3095 69H5C2.23858 69 0 66.7614 0 64C0 61.2386 2.23858 59 5 59H24.3095C25.2202 51.6965 28.0999 45.0044 32.4007 39.4718L18.5355 25.6066C16.5829 23.654 16.5829 20.4882 18.5355 18.5355C20.4882 16.5829 23.654 16.5829 25.6066 18.5355L39.4718 32.4007C45.0044 28.0999 51.6965 25.2202 59 24.3095V5C59 2.23858 61.2386 0 64 0C66.7614 0 69 2.23858 69 5V24.3095C76.1997 25.2073 82.8052 28.0185 88.2915 32.2181L101.974 18.5355C103.927 16.5829 107.093 16.5829 109.045 18.5355C110.998 20.4882 110.998 23.654 109.045 25.6066L95.4151 39.2367C99.8178 44.8144 102.767 51.5927 103.691 59H123C125.761 59 128 61.2386 128 64C128 66.7614 125.761 69 123 69H103.691C102.78 76.3035 99.9001 82.9956 95.5993 88.5282L109.045 101.974C110.998 103.927 110.998 107.093 109.045 109.045C107.093 110.998 103.927 110.998 101.974 109.045L88.5282 95.5993C82.9956 99.9001 76.3035 102.78 69 103.691V123C69 125.761 66.7614 128 64 128Z" fill="black"/>
<path d="M64.0387 96H64H63.9613C63.9742 96 63.9871 96 64 96C64.0129 96 64.0258 96 64.0387 96Z" fill="white"/>
<path d="M64 36C64 33.7909 62.2019 31.9737 60.0096 32.2464C52.4063 33.1922 45.6309 36.8053 40.649 42.12C36.1413 46.9287 33.102 53.1305 32.2463 60.0099C31.9737 62.2022 33.7909 64 36 64V64V64C38.2091 64 39.965 62.1967 40.3289 60.0177C41.1917 54.851 43.7052 50.2431 47.3088 46.7546C50.7247 43.4478 55.1202 41.1467 60.0178 40.3289C62.1967 39.965 64 38.2091 64 36V36Z" fill="white"/>
<path d="M96 63.9684V64V64.0316C96 64.0211 96 64.0105 96 64C96 63.9895 96 63.979 96 63.9684Z" fill="white"/>
<path fill-rule="evenodd" clip-rule="evenodd" d="M114.509 125.387C117.595 128.471 122.599 128.471 125.685 125.387C128.772 122.302 128.772 117.301 125.685 114.217L75.3263 63.8865L125.458 13.7832C128.544 10.6987 128.544 5.6978 125.458 2.61332C122.372 -0.471148 117.368 -0.471143 114.282 2.61333L64.1501 52.7166L13.718 2.31335C10.6318 -0.771117 5.62801 -0.771119 2.54178 2.31335C-0.544456 5.39783 -0.544452 10.3987 2.54178 13.4832L52.9738 63.8865L2.31468 114.517C-0.771558 117.601 -0.771559 122.602 2.31467 125.687C5.40091 128.771 10.4047 128.771 13.4909 125.687L64.1501 75.0564L114.509 125.387Z" fill="#FF0000"/>
<path fill-rule="evenodd" clip-rule="evenodd" d="M114.509 125.387C117.595 128.471 122.599 128.471 125.685 125.387C128.772 122.302 128.772 117.301 125.685 114.217L75.3263 63.8865L125.458 13.7832C128.544 10.6987 128.544 5.6978 125.458 2.61332C122.372 -0.471148 117.368 -0.471143 114.282 2.61333L64.1501 52.7166L13.718 2.31335C10.6318 -0.771117 5.62801 -0.771119 2.54178 2.31335C-0.544456 5.39783 -0.544452 10.3987 2.54178 13.4832L52.9738 63.8865L2.31468 114.517C-0.771558 117.601 -0.771559 122.602 2.31467 125.687C5.40091 128.771 10.4047 128.771 13.4909 125.687L64.1501 75.0564L114.509 125.387Z" fill="#FF0000"/>
<path fill-rule="evenodd" clip-rule="evenodd" d="M114.509 125.387C117.595 128.471 122.599 128.471 125.685 125.387C128.772 122.302 128.772 117.301 125.685 114.217L75.3263 63.8865L125.458 13.7832C128.544 10.6987 128.544 5.6978 125.458 2.61332C122.372 -0.471148 117.368 -0.471143 114.282 2.61333L64.1501 52.7166L13.718 2.31335C10.6318 -0.771117 5.62801 -0.771119 2.54178 2.31335C-0.544456 5.39783 -0.544452 10.3987 2.54178 13.4832L52.9738 63.8865L2.31468 114.517C-0.771558 117.601 -0.771559 122.602 2.31467 125.687C5.40091 128.771 10.4047 128.771 13.4909 125.687L64.1501 75.0564L114.509 125.387Z" fill="#FF0000"/>
</svg>
