<svg width="128" height="128" viewBox="0 0 128 128" fill="none" xmlns="http://www.w3.org/2000/svg">
<path fill-rule="evenodd" clip-rule="evenodd" d="M114.509 125.387C117.595 128.471 122.599 128.471 125.685 125.387C128.772 122.302 128.772 117.301 125.685 114.217L75.3263 63.8865L125.458 13.7832C128.544 10.6987 128.544 5.6978 125.458 2.61332C122.372 -0.471148 117.368 -0.471143 114.282 2.61333L64.1501 52.7166L13.718 2.31335C10.6318 -0.771117 5.62801 -0.771119 2.54178 2.31335C-0.544456 5.39783 -0.544452 10.3987 2.54178 13.4832L52.9738 63.8865L2.31468 114.517C-0.771558 117.601 -0.771559 122.602 2.31467 125.687C5.40091 128.771 10.4047 128.771 13.4909 125.687L64.1501 75.0564L114.509 125.387Z" fill="#FF0000"/>
<path fill-rule="evenodd" clip-rule="evenodd" d="M114.509 125.387C117.595 128.471 122.599 128.471 125.685 125.387C128.772 122.302 128.772 117.301 125.685 114.217L75.3263 63.8865L125.458 13.7832C128.544 10.6987 128.544 5.6978 125.458 2.61332C122.372 -0.471148 117.368 -0.471143 114.282 2.61333L64.1501 52.7166L13.718 2.31335C10.6318 -0.771117 5.62801 -0.771119 2.54178 2.31335C-0.544456 5.39783 -0.544452 10.3987 2.54178 13.4832L52.9738 63.8865L2.31468 114.517C-0.771558 117.601 -0.771559 122.602 2.31467 125.687C5.40091 128.771 10.4047 128.771 13.4909 125.687L64.1501 75.0564L114.509 125.387Z" fill="#FF0000"/>
<path fill-rule="evenodd" clip-rule="evenodd" d="M114.509 125.387C117.595 128.471 122.599 128.471 125.685 125.387C128.772 122.302 128.772 117.301 125.685 114.217L75.3263 63.8865L125.458 13.7832C128.544 10.6987 128.544 5.6978 125.458 2.61332C122.372 -0.471148 117.368 -0.471143 114.282 2.61333L64.1501 52.7166L13.718 2.31335C10.6318 -0.771117 5.62801 -0.771119 2.54178 2.31335C-0.544456 5.39783 -0.544452 10.3987 2.54178 13.4832L52.9738 63.8865L2.31468 114.517C-0.771558 117.601 -0.771559 122.602 2.31467 125.687C5.40091 128.771 10.4047 128.771 13.4909 125.687L64.1501 75.0564L114.509 125.387Z" fill="#FF0000"/>
</svg>
